<!-- Generator: Adobe Illustrator 21.0.2, SVG Export Plug-In  -->
<svg version="1.1"
	 xmlns="http://www.w3.org/2000/svg" xmlns:xlink="http://www.w3.org/1999/xlink" xmlns:a="http://ns.adobe.com/AdobeSVGViewerExtensions/3.0/"
	 x="0px" y="0px" width="614.011px" height="405.278px" viewBox="0 0 614.011 405.278"
	 style="enable-background:new 0 0 614.011 405.278;" xml:space="preserve">
<style type="text/css">
	.st0{fill:none;stroke:#7AC943;stroke-width:0.5;stroke-miterlimit:10;}
	.st1{fill:none;stroke:#0071BC;stroke-width:0.5;stroke-miterlimit:10;}
	.st2{fill:#FFFFFF;}
	.st3{fill:none;stroke:#FF7BAC;stroke-width:0.5;stroke-miterlimit:10;}
	.st4{fill:#4F4F4F;stroke:#666666;stroke-width:3;stroke-miterlimit:10;}
</style>
<defs>
</defs>
<polyline class="st0" points="17.537,201.013 184.677,231.189 326.45,254.514 159.237,114.833 271.031,41 356.001,81.428 
	306.835,127.667 245.656,137.927 127.298,36.943 80.311,325.778 296.898,381.163 201.483,394.724 401.532,239.453 "/>
<polyline class="st0" points="296.898,381.163 599.572,336.332 367.383,315.224 612.237,215.834 401.532,239.453 608.015,137.927 
	372.66,178.367 605.201,73.179 356.001,81.428 "/>
<polyline class="st0" points="201.483,394.724 242.017,360.055 296.898,381.163 367.383,315.224 271.569,309.395 401.532,239.453 
	184.677,231.189 306.835,127.667 159.237,114.833 41.206,137.927 127.298,36.943 356.001,81.428 46.482,270.447 287.917,203.904 
	114.087,373.616 17.537,201.013 372.66,178.367 271.031,41 245.656,137.927 "/>
<polyline class="st0" points="114.087,373.616 287.917,203.904 326.45,254.514 372.66,178.367 "/>
<polyline class="st0" points="124.641,192.791 80.311,325.778 114.087,373.616 133.878,291.555 184.677,231.189 204.023,305.174 
	242.017,360.055 271.569,309.395 326.45,254.514 401.532,239.453 287.917,203.904 "/>
<polyline class="st1" points="602.386,309.395 114.087,373.616 287.917,203.904 612.237,178.367 356.001,81.428 123.144,194.278 
	595.35,275.992 "/>
<polyline class="st0" points="114.087,373.616 204.023,305.174 201.483,394.724 133.878,291.555 124.641,192.791 159.237,114.833 
	245.656,137.927 184.677,231.189 287.917,203.904 306.835,127.667 271.031,41 204.023,10.554 127.298,36.943 "/>
<polyline class="st0" points="17.537,201.013 46.482,270.447 124.641,192.791 "/>
<polyline class="st0" points="356.001,81.428 306.835,127.667 326.45,254.514 204.023,305.174 287.917,203.904 245.656,137.927 
	121.554,195.858 127.298,36.943 271.031,41 "/>
<polygon class="st0" points="114.087,373.616 124.641,192.791 184.677,231.189 "/>
<circle class="st2" cx="114.087" cy="373.616" r="10.554"/>
<polyline class="st3" points="287.917,203.904 612.237,104.137 326.45,254.514 204.023,305.174 602.386,291.555 "/>
<circle class="st2" cx="80.311" cy="325.778" r="10.554"/>
<polyline class="st0" points="127.298,36.943 287.917,203.904 201.483,394.724 17.537,201.013 184.677,231.189 245.656,137.927 
	204.023,305.174 372.66,178.367 164.699,119.396 "/>
<polyline class="st0" points="46.482,270.447 41.206,137.927 124.641,192.791 17.537,201.013 127.298,36.943 159.237,114.833 
	204.023,10.554 245.656,137.927 306.835,127.667 372.66,178.367 401.532,239.453 367.383,315.224 326.45,254.514 296.898,381.163 
	271.569,309.395 184.677,231.189 166.676,130.591 "/>
<ellipse transform="matrix(0.1244 -0.9922 0.9922 0.1244 149.3093 525.937)" class="st2" cx="372.66" cy="178.367" rx="5.277" ry="5.277"/>
<polyline class="st0" points="159.237,114.833 17.537,201.013 133.878,291.555 287.917,203.904 271.031,41 "/>
<ellipse transform="matrix(0.9152 -0.403 0.403 0.9152 -4.0926 54.439)" class="st2" cx="127.298" cy="36.943" rx="17.428" ry="17.428"/>
<ellipse transform="matrix(0.7071 -0.7071 0.7071 0.7071 -177.6209 112.0799)" class="st2" cx="46.482" cy="270.447" rx="10.554" ry="10.554"/>
<ellipse transform="matrix(0.7896 -0.6136 0.6136 0.7896 -116.1312 291.7599)" class="st2" cx="367.383" cy="315.224" rx="5.277" ry="5.277"/>
<ellipse transform="matrix(0.3621 -0.9321 0.9321 0.3621 134.6615 278.7861)" class="st2" cx="271.031" cy="41" rx="17.428" ry="17.428"/>
<ellipse transform="matrix(0.9834 -0.1812 0.1812 0.9834 -24.3149 9.7521)" class="st2" cx="41.206" cy="137.927" rx="5.277" ry="5.277"/>
<ellipse transform="matrix(0.6795 -0.7337 0.7337 0.6795 -22.455 224.4547)" class="st2" cx="245.656" cy="137.927" rx="10.554" ry="10.554"/>
<ellipse transform="matrix(0.0635 -0.998 0.998 0.0635 -57.7768 400.8063)" class="st2" cx="184.677" cy="231.189" rx="17.428" ry="17.428"/>
<ellipse transform="matrix(0.6795 -0.7337 0.7337 0.6795 -139.9586 298.431)" class="st2" cx="271.569" cy="309.395" rx="10.554" ry="10.554"/>
<ellipse transform="matrix(0.0635 -0.998 0.998 0.0635 34.5201 266.4539)" class="st2" cx="159.237" cy="114.833" rx="17.428" ry="17.428"/>
<ellipse transform="matrix(0.6795 -0.7337 0.7337 0.6795 -82.0996 321.1062)" class="st2" cx="326.45" cy="254.514" rx="10.554" ry="10.554"/>
<circle class="st2" cx="201.483" cy="394.724" r="10.554"/>
<ellipse transform="matrix(0.7071 -0.7071 0.7071 0.7071 -166.9489 180.0605)" class="st2" cx="133.878" cy="291.555" rx="10.554" ry="10.554"/>
<ellipse transform="matrix(0.6795 -0.7337 0.7337 0.6795 -57.3172 276.611)" class="st2" cx="287.917" cy="203.904" rx="10.554" ry="10.554"/>
<ellipse transform="matrix(0.6795 -0.7337 0.7337 0.6795 54.3695 287.3063)" class="st2" cx="356.001" cy="81.428" rx="10.554" ry="10.554"/>
<ellipse transform="matrix(0.6795 -0.7337 0.7337 0.6795 -101.5011 153.25)" class="st2" cx="124.641" cy="192.791" rx="20.546" ry="20.546"/>
<ellipse transform="matrix(0.6795 -0.7337 0.7337 0.6795 -141.8653 77.3015)" class="st2" cx="17.537" cy="201.013" rx="17.537" ry="17.537"/>
<ellipse transform="matrix(0.6795 -0.7337 0.7337 0.6795 -184.4964 340.0206)" class="st2" cx="296.898" cy="381.163" rx="10.554" ry="10.554"/>
<ellipse transform="matrix(0.6795 -0.7337 0.7337 0.6795 -46.981 371.3679)" class="st2" cx="401.532" cy="239.453" rx="10.554" ry="10.554"/>
<ellipse transform="matrix(0.6795 -0.7337 0.7337 0.6795 -158.5128 247.5182)" class="st2" cx="204.023" cy="305.174" rx="10.554" ry="10.554"/>
<ellipse transform="matrix(0.6795 -0.7337 0.7337 0.6795 -186.6009 292.9873)" class="st2" cx="242.017" cy="360.055" rx="10.554" ry="10.554"/>
<ellipse transform="matrix(0.6795 -0.7337 0.7337 0.6795 57.6553 153.0787)" class="st2" cx="204.023" cy="10.554" rx="10.554" ry="10.554"/>
<ellipse transform="matrix(0.6795 -0.7337 0.7337 0.6795 4.6833 266.0542)" class="st2" cx="306.835" cy="127.667" rx="10.554" ry="10.554"/>
<path class="st4" d="M17.537,201.013"/>
</svg>